HIERARCHY
ROOT Hips
{
  OFFSET -102.467 93.6631 130.069
  CHANNELS 6 Xposition Yposition Zposition Zrotation Xrotation Yrotation
  JOINT LeftUpLeg
  {
    OFFSET 8.64259 1.95398 -2.38835
    CHANNELS 3 Zrotation Xrotation Yrotation
    JOINT LeftLeg
    {
      OFFSET 43.7702 0 0
      CHANNELS 3 Zrotation Xrotation Yrotation
      JOINT LeftFoot
      {
        OFFSET 40.6238 0 0
        CHANNELS 3 Zrotation Xrotation Yrotation
        JOINT LeftToeBase
        {
          OFFSET 12.7242 0 0
          CHANNELS 3 Zrotation Xrotation Yrotation
          End Site
          {
            OFFSET 0 0 0
          }
        }
      }
    }
  }
  JOINT RightUpLeg
  {
    OFFSET -8.2249 1.95398 -2.59336
    CHANNELS 3 Zrotation Xrotation Yrotation
    JOINT RightLeg
    {
      OFFSET 43.5653 0 0
      CHANNELS 3 Zrotation Xrotation Yrotation
      JOINT RightFoot
      {
        OFFSET 40.6238 0 0
        CHANNELS 3 Zrotation Xrotation Yrotation
        JOINT RightToeBase
        {
          OFFSET 12.7242 0 0
          CHANNELS 3 Zrotation Xrotation Yrotation
          End Site
          {
            OFFSET 0 0 0
          }
        }
      }
    }
  }
  JOINT Spine
  {
    OFFSET 0.165834 0.87714 6.61349
    CHANNELS 3 Zrotation Xrotation Yrotation
    JOINT Spine1
    {
      OFFSET 7.38963 1.71661e-005 0
      CHANNELS 3 Zrotation Xrotation Yrotation
      JOINT Spine2
      {
        OFFSET 11.9445 1.14441e-005 0
        CHANNELS 3 Zrotation Xrotation Yrotation
        JOINT Spine3
        {
          OFFSET 14.7254 4.19617e-005 0
          CHANNELS 3 Zrotation Xrotation Yrotation
          JOINT Spine4
          {
            OFFSET 10.9679 0 0
            CHANNELS 3 Zrotation Xrotation Yrotation
            JOINT RightShoulder
            {
              OFFSET 2.46616 -1.6653 3.69651
              CHANNELS 3 Zrotation Xrotation Yrotation
              JOINT RightArm
              {
                OFFSET 13.0012 0 0
                CHANNELS 3 Zrotation Xrotation Yrotation
                JOINT RightForeArm
                {
                  OFFSET 28.7848 1.52588e-005 0
                  CHANNELS 3 Zrotation Xrotation Yrotation
                  JOINT RightHand
                  {
                    OFFSET 26.5688 1.52588e-005 0
                    CHANNELS 3 Zrotation Xrotation Yrotation
                    End Site
                    {
                      OFFSET 0 0 0
                    }
                  }
                }
              }
            }
            JOINT LeftShoulder
            {
              OFFSET 2.38034 -1.29275 -3.7523
              CHANNELS 3 Zrotation Xrotation Yrotation
              JOINT LeftArm
              {
                OFFSET 16.3182 6.10351e-005 0
                CHANNELS 3 Zrotation Xrotation Yrotation
                JOINT LeftForeArm
                {
                  OFFSET 27.0901 0 0
                  CHANNELS 3 Zrotation Xrotation Yrotation
                  JOINT LeftHand
                  {
                    OFFSET 24.5451 1.52588e-005 0
                    CHANNELS 3 Zrotation Xrotation Yrotation
                    End Site
                    {
                      OFFSET 0 0 0
                    }
                  }
                }
              }
            }
            JOINT Neck
            {
              OFFSET 5.0226 -0.0266342 0
              CHANNELS 3 Zrotation Xrotation Yrotation
              JOINT Head
              {
                OFFSET 6.69363 2.86102e-005 0
                CHANNELS 3 Zrotation Xrotation Yrotation
                End Site
                {
                  OFFSET 0 0 0
                }
              }
            }
          }
        }
      }
    }
  }
}
MOTION
Frames:	18
Frame Time:	0.0416667
-78.3146 94.7978 114.43 101.886 40.1169 83.6098 -178.547 15.5884 87.7411 -8.34588 11.4315 1.26253 53.4497 -1.73891 3.7893 38.312 -0.124186 6.57957 175.192 -4.94088 91.3134 -33.9549 -4.53635 -1.13837 70.0798 3.58988 14.2437 42.3739 -0.544071 9.50769 0.464648 7.89488 -90.3665 11.0864 0.754876 -0.802433 -0.584637 0.718835 -0.834894 -23.1205 0.961155 -0.538457 -3.10786 0.961134 -0.538476 97.5066 -58.2611 -88.7517 12.0271 -16.3967 -19.3636 -5.11269 -6.82671 -28.0667 -12.5552 -0.920202 3.43392 -84.3166 -57.4676 87.8462 -26.571 4.30084 -5.5914 -2.10991 37.9593 -0.00398056 -5.92506 -0.103996 -3.93519 -6.58174 -0.615451 -1.73334 -27.3381 -0.668352 0.933201 
-71.1753 94.0975 108.535 101.697 39.6286 82.699 -178.899 16.5787 86.5668 -18.0177 17.0387 1.41101 48.9162 -4.30453 9.0892 38.0029 -0.594085 3.06881 173.942 -6.67497 88.3204 -37.7274 -7.7431 -1.37783 59.0518 7.58769 17.6056 49.1494 0.405018 16.5295 0.406087 7.71597 -89.946 11.4423 0.833157 0.0228137 -0.228397 0.833345 -0.0138901 -22.7655 0.787792 0.272171 -2.7529 0.787781 0.272159 98.2092 -59.4563 -87.6836 15.4697 -16.7707 -13.9922 -5.50621 -7.10771 -28.4627 -12.3279 -0.791415 2.35176 -83.9071 -57.3377 88.4044 -25.0515 3.73538 -6.1505 -1.89416 35.1467 -0.00343993 -6.19287 -0.10556 -3.92 -8.83273 -0.729818 -4.2305 -26.5791 -1.14351 3.38198 
-64.9921 93.5341 103.41 102.619 39.5744 80.5767 -177.521 16.7919 84.817 -30.6106 16.9482 0.807304 57.5492 0.471324 13.143 33.2907 -0.561337 -0.246149 171.428 0.201209 82.9809 -51.4355 -11.5041 -1.13671 45.9754 11.8882 19.1566 35.6847 2.701 20.1382 0.176153 7.71626 -89.5221 11.4386 0.573843 0.897415 -0.232536 0.612759 0.871287 -22.7656 0.277605 1.02837 -2.75295 0.277597 1.02837 98.364 -59.3836 -87.4729 21.0489 -16.0493 -7.9812 -5.54446 -10.1977 -24.6269 -12.4626 -0.825539 2.58727 -84.6714 -57.2448 87.329 -22.4886 3.70312 -8.79784 -1.75944 33.9514 -0.00268746 -5.5282 -0.0898342 -4.44172 -8.89926 -0.177955 -4.37871 -26.5686 -0.643958 3.67826 
-59.2427 94.3676 98.7191 104.521 39.7855 80.0669 -176.563 11.0396 85.7127 -32.5016 17.6557 1.18357 61.652 3.59736 14.5511 36.6205 -1.03383 -0.887211 171.732 11.477 84.623 -62.5168 -12.2783 -1.16894 48.7464 10.097 16.5013 27.3218 2.28931 13.9273 -0.155683 7.9719 -89.5484 10.9301 -0.101011 0.905606 -0.741144 -0.0610648 0.909171 -23.2741 -0.368511 0.833388 -3.2615 -0.368513 0.833384 98.7269 -59.4821 -86.9619 23.7002 -12.9802 -6.62965 -3.49616 -12.6818 -16.2645 -11.5304 -0.822143 3.21531 -85.2779 -57.9004 86.5574 -19.4365 3.14406 -16.1437 -1.19971 32.3571 -0.00199353 -3.01688 -0.0910154 -3.92324 -8.87254 1.07487 -2.1328 -26.5673 0.324221 4.47404 
-53.6016 95.4064 94.1916 104.982 42.5747 81.1735 -176.547 5.78066 87.2309 -31.8133 19.5968 2.77095 63.948 5.96669 14.8978 39.6222 -1.39865 -0.820464 170.814 18.6619 86.7365 -56.0695 -9.04974 0.720611 54.6266 8.17388 17.5061 24.6737 1.60996 5.22845 -0.544038 7.96972 -89.8148 10.9366 -0.997377 0.462934 -0.734031 -0.976035 0.506373 -23.2722 -1.0904 0.141743 -3.25951 -1.0904 0.14174 99.6887 -59.8209 -85.6098 25.3524 -8.99253 -3.25114 -2.61923 -13.3577 -11.7107 -10.5194 -0.831896 4.17752 -84.7155 -56.9908 87.2395 -18.6903 4.06687 -25.1856 -1.01635 32.1174 -0.00179681 -0.531354 -0.0796095 -3.69012 -11.0107 2.08402 -2.14063 -27.0702 0.972974 5.97976 
-48.0598 96.0309 89.9222 105.422 44.4216 80.885 -176.013 0.174759 87.9545 -29.0721 21.3904 3.51566 65.1437 7.9605 15.077 42.4718 -1.46487 0.752334 170.692 18.2092 86.4003 -33.6756 0.599688 2.44491 56.1792 7.99985 19.0489 19.742 2.49047 4.03644 -0.693344 7.94156 -89.9429 10.9927 -1.35377 0.242802 -0.67762 -1.34178 0.302149 -23.2184 -1.36413 -0.175358 -3.20575 -1.36415 -0.175369 100.352 -59.7581 -84.6915 26.8613 -6.52855 0.892261 -2.76378 -13.3262 -10.5697 -9.13742 -0.806355 5.29251 -85.2821 -55.2668 86.2433 -17.844 6.48917 -29.9265 2.7314 30.3206 -8.02017 -1.29367 -0.096119 -4.7389 -11.6611 2.51778 -1.97254 -27.0656 1.37419 6.07995 
-42.2355 96.1418 85.6305 104.956 45.1638 79.2786 -175.664 -6.34999 87.9302 -25.0839 22.6219 3.26531 64.2984 8.77043 15.2913 47.96 -1.7603 2.11905 174.462 14.9878 84.3489 -10.0936 8.07222 0.141412 55.5462 9.78591 21.6089 12.8008 3.77926 2.17174 -0.699018 7.83066 -89.9101 11.2145 -1.34931 0.311264 -0.455752 -1.33432 0.370355 -22.9965 -1.38048 -0.108729 -2.98386 -1.38049 -0.108734 100.343 -59.6271 -84.7079 27.2612 -4.59129 3.1123 -2.40122 -12.4796 -8.39571 -7.98669 -0.604665 3.88068 -84.9949 -55.1038 86.6333 -16.416 8.92074 -32.3413 8.26465 28.6725 -18.9037 0.08885 -0.109991 -5.33847 -11.6134 2.09319 0.220792 -27.7469 1.29986 3.8393 
-35.8073 95.1747 81.193 105.303 47.1389 78.1353 -176.836 -8.56502 87.766 -30.154 25.3129 4.88229 63.6698 9.47002 16.1002 55.216 -0.925561 7.19468 174.559 15.4218 83.1235 -10.7118 5.51856 0.0999658 52.2402 10.261 16.2046 19.5615 2.1248 -0.185763 -0.792237 7.72525 -90.0582 11.4238 -1.60336 0.0467547 -0.246141 -1.59976 0.117283 -22.7887 -1.5433 -0.437405 -2.77605 -1.54329 -0.437407 101.091 -59.9098 -83.6635 25.9918 -4.13025 2.66532 -2.57651 -12.8423 -7.95603 -6.77309 -0.504535 3.76401 -84.9387 -55.8315 86.7972 -16.8137 10.1343 -31.022 12.1793 27.1275 -26.084 -0.0830967 -0.11153 -5.44303 -11.7884 1.32704 1.37167 -28.2202 0.698067 2.73782 
-28.7565 95.2225 76.7123 105.834 46.7458 79.4537 -177.553 -8.45818 90.6359 -38.4637 22.7981 6.22433 59.1027 3.57267 7.49921 62.4504 -1.50007 6.8615 174.496 16.4178 85.056 -22.1865 3.04729 0.623638 53.7579 10.8963 15.737 19.0419 2.13765 -1.94809 -0.696741 7.61173 -90.5463 11.6437 -1.64198 -0.917971 -0.0264917 -1.68079 -0.844805 -22.5647 -1.29019 -1.36902 -2.55203 -1.2902 -1.36903 101.12 -59.7618 -83.626 23.5832 -5.23553 0.931556 -2.5619 -11.429 -9.69264 -7.32267 -0.592631 4.537 -84.6444 -57.9317 87.4389 -19.1388 10.2504 -25.357 12.8366 29.0955 -26.0157 0.334991 -0.124054 -5.78843 -13.9988 1.06967 1.60824 -27.9267 0.245129 3.78992 
-22.5257 94.8988 73.3113 106.077 46.7052 80.9968 -176.721 0.268596 95.1035 -54.1223 13.5135 4.97694 47.5128 -4.59826 -2.06886 50.4337 -3.8276 -4.41787 174.125 16.5742 87.5632 -31.8658 0.201124 1.90803 60.1909 8.91852 10.8991 21.5572 1.60279 -1.02209 -0.721707 7.5745 -90.9412 11.7093 -1.87718 -1.68219 0.0386743 -1.94938 -1.59795 -22.4936 -1.28496 -2.16846 -2.48098 -1.28494 -2.16846 101.393 -59.8554 -83.2447 20.1845 -8.00995 -3.14334 -2.97228 -9.99322 -13.7557 -8.09826 -0.56187 3.11245 -84.6783 -57.3041 87.3252 -24.6528 7.78698 -18.8317 8.2486 31.5229 -16.5317 -1.07134 -0.101344 -5.21309 -12.7817 0.601614 -0.516328 -28.9771 -0.474014 4.94437 
-17.3195 95.2124 70.424 108.362 47.1781 80.4725 -178.025 11.1734 94.2136 -65.0328 10.088 4.60042 50.1374 -0.423621 6.45845 51.4588 -1.27378 5.22173 173.693 12.1847 89.3342 -34.6666 1.49634 2.25165 64.6131 8.30192 10.6707 22.65 1.55635 1.13869 -0.674058 7.93532 -91.1417 10.981 -1.87021 -2.08999 -0.690136 -1.96037 -2.00567 -23.2166 -1.15589 -2.5552 -3.20392 -1.15587 -2.5552 101.051 -59.457 -83.728 17.8555 -9.6562 -9.09057 -2.95517 -7.24822 -17.9982 -11.3468 -0.650884 1.55779 -85.9029 -56.6899 85.54 -26.4428 6.25497 -18.1684 -0.0115389 37.0466 -2.53462 -4.14619 -0.0827726 -4.60937 -10.3375 -0.482727 -3.44774 -28.0575 -1.32256 4.69337 
-12.3997 96.2023 67.4726 107.289 43.1738 80.5224 -177.65 15.4815 91.7496 -55.2656 11.4663 3.27233 54.2534 2.16329 6.82436 56.9153 0.034193 10.5076 174.168 7.83333 89.1344 -33.1751 0.493799 1.12961 68.2888 7.98655 12.7482 20.315 2.13564 1.8363 -0.269608 8.09311 -90.9753 10.6767 -0.986008 -1.84942 -0.995168 -1.06642 -1.80427 -23.5204 -0.384729 -2.06017 -3.50776 -0.384733 -2.06018 100.204 -58.461 -84.9369 17.2773 -10.2388 -13.9539 -3.90559 -6.4739 -22.5035 -12.6177 -0.723664 1.52435 -86.0177 -56.6914 85.3801 -26.6887 4.43828 -14.581 -1.72669 43.7346 0.172985 -9.354 -0.0975711 -4.30808 -11.8132 -0.244405 -5.55121 -26.0243 -1.31673 6.53493 
-7.83919 96.8244 64.5747 104.266 39.5326 83.4768 -178.875 16.176 91.6865 -33.2185 11.1465 3.00841 53.0706 1.44759 6.06177 58.1948 0.283833 11.4278 174.665 4.63852 90.0853 -30.4931 1.79204 0.570383 70.8838 8.07027 16.8913 17.6285 2.73854 2.26706 0.0121596 8.03197 -91.0029 10.802 -0.438757 -1.95358 -0.870296 -0.524299 -1.9324 -23.3937 0.168536 -1.99513 -3.38103 0.168531 -1.99513 99.4765 -57.7103 -85.9956 15.3235 -13.3331 -17.6719 -4.89619 -6.11279 -26.6371 -11.1869 -0.630108 1.4191 -85.4654 -58.4161 86.3582 -25.4153 4.57947 -8.79878 -2.12991 38.0157 -0.00355046 -5.53691 -0.101413 -3.97569 -11.1377 1.20551 -4.56663 -25.7056 -0.155453 8.14213 
-3.28635 97.1557 61.4811 102.31 37.2675 85.8757 177.831 13.2325 93.1553 -10.9966 21.9647 3.64477 48.801 -2.22795 0.705604 54.8932 -1.07076 6.69814 174.927 1.86015 91.2777 -29.0362 0.463444 0.466542 70.5513 6.96157 16.7912 22.193 1.93634 3.88902 0.0566296 7.9771 -90.9685 10.913 -0.335091 -1.89482 -0.759251 -0.418136 -1.87826 -23.2834 0.249764 -1.90794 -3.27074 0.249742 -1.90794 99.1621 -58.0896 -86.4238 13.587 -16.0716 -19.7207 -4.99586 -5.76546 -28.2125 -11.1748 -0.603529 1.13693 -84.8211 -57.5022 87.1474 -27.5024 4.12544 -5.65799 -1.70882 34.3058 -0.00381399 -4.56796 -0.0961764 -4.10594 -10.3044 2.5215 -6.35351 -25.1936 0.706065 11.4482 
1.73478 96.8603 57.7036 101.568 33.8083 87.3419 177.749 13.3388 92.2801 -11.7096 30.7564 7.64611 50.1225 -4.85804 -2.21912 52.0502 -3.65014 -3.04594 175.212 -0.842697 91.3704 -29.9946 -1.60978 -0.186961 71.7315 5.23355 16.1958 26.6499 1.32271 5.80532 0.21722 7.87475 -90.8243 11.1213 0.04968 -1.64563 -0.55071 -0.0227782 -1.64623 -23.0781 0.5419 -1.55467 -3.06542 0.5419 -1.55467 98.7797 -58.6446 -86.9337 15.4577 -15.6118 -17.7213 -5.2936 -7.62159 -26.1824 -11.06 -0.590934 1.06323 -84.2945 -58.1072 87.9411 -26.2824 4.23341 -6.17894 -2.01403 36.5558 -0.00419495 -8.18234 -0.0831174 -4.52313 -10.6357 3.21747 -7.76394 -24.2108 1.28341 13.0167 
6.62503 96.7012 53.301 101.349 29.4606 87.0379 178.759 9.29467 91.3634 -10.4607 29.8428 6.06305 47.0681 -4.79834 3.85698 36.881 -1.1075 -1.22052 175.024 -3.50264 89.6799 -31.5369 -4.6198 -1.73514 69.798 4.99771 16.7559 35.2141 0.00779556 7.00417 0.280266 7.70443 -90.4981 11.4666 0.324894 -1.0254 -0.204718 0.279464 -1.03872 -22.7378 0.618044 -0.88038 -2.72513 0.618058 -0.880373 98.7634 -60.0669 -86.8799 17.2643 -14.4338 -14.9591 -3.57625 -10.2731 -18.8218 -10.5757 -0.614883 1.64769 -83.9065 -59.4824 88.6052 -23.9162 4.37894 -8.10922 -2.16401 37.0399 -0.00416887 -5.13845 -0.0994706 -3.57493 -10.4866 4.39777 -7.15335 -24.0861 2.32623 13.7928 
10.0961 96.4923 49.5398 100.041 26.6847 87.4992 179.632 11.9129 90.3229 -20.4293 27.8177 5.82581 52.4321 -2.08518 7.54649 36.273 -1.09593 -1.69436 174.406 -0.110456 86.8927 -38.2462 -8.0637 -1.75156 61.3743 6.54733 17.1375 45.1133 -1.16005 8.91608 0.30469 7.48233 -90.2458 11.9102 0.490115 -0.542862 0.239219 0.465743 -0.563913 -22.2962 0.630623 -0.370455 -2.28354 0.630576 -0.370477 98.2869 -59.9378 -87.5462 22.0725 -9.32104 -9.64403 -2.3106 -12.682 -11.1232 -10.098 -0.658138 2.50562 -84.2505 -58.3126 88.0222 -23.255 4.78749 -13.1056 -1.7936 37.3972 -0.0033352 -3.41636 -0.0983602 -3.51024 -9.42913 6.04998 -6.19855 -22.9184 4.04055 14.4293 
12.4092 95.8468 46.653 101.245 25.5481 86.5378 -178.628 12.2766 89.4632 -27.7823 27.0888 4.6609 58.2155 0.74622 8.92272 35.1171 -1.11201 -3.06346 173.272 6.84009 84.635 -51.3518 -9.20145 -1.73808 52.2224 8.55742 15.7046 33.7235 1.29054 11.9505 0.104914 7.73304 -90.1189 11.409 0.1533 -0.251743 -0.26191 0.142067 -0.258252 -22.7971 0.221874 -0.194028 -2.78449 0.221906 -0.19403 98.067 -59.3827 -87.8868 23.4969 -7.04868 -6.38824 -1.70755 -12.995 -7.49523 -8.08299 -0.555305 2.98501 -84.641 -58.0462 87.4543 -19.8573 7.01872 -19.7324 -0.0907421 34.2638 -4.37039 -1.92937 -0.0908703 -4.37977 -5.90349 9.70167 -5.97589 -20.927 7.79341 16.6268 
